HIERARCHY
ROOT Hips
{
	OFFSET 0.00000 0.00000 0.00000
	CHANNELS 6 Xposition Yposition Zposition Zrotation Yrotation Xrotation 
	JOINT LHipJoint
	{
		OFFSET 0 0 0
		CHANNELS 3 Zrotation Yrotation Xrotation
		JOINT LeftUpLeg
		{
			OFFSET 1.85742 -1.74412 1.01653
			CHANNELS 3 Zrotation Yrotation Xrotation
			JOINT LeftLeg
			{
				OFFSET 2.54803 -7.00067 0.00000
				CHANNELS 3 Zrotation Yrotation Xrotation
				JOINT LeftFoot
				{
					OFFSET 2.51202 -6.90173 0.00000
					CHANNELS 3 Zrotation Yrotation Xrotation
					JOINT LeftToeBase
					{
						OFFSET 0.17547 -0.48209 1.64281
						CHANNELS 3 Zrotation Yrotation Xrotation
						End Site
						{
							OFFSET 0.00000 -0.00000 0.86587
						}
					}
				}
			}
		}
	}
	JOINT RHipJoint
	{
		OFFSET 0 0 0
		CHANNELS 3 Zrotation Yrotation Xrotation
		JOINT RightUpLeg
		{
			OFFSET -1.95533 -1.74413 1.01654
			CHANNELS 3 Zrotation Yrotation Xrotation
			JOINT RightLeg
			{
				OFFSET -2.49465 -6.85400 0.00000
				CHANNELS 3 Zrotation Yrotation Xrotation
				JOINT RightFoot
				{
					OFFSET -2.54783 -7.00010 0.00000
					CHANNELS 3 Zrotation Yrotation Xrotation
					JOINT RightToeBase
					{
						OFFSET -0.18513 -0.50864 1.69288
						CHANNELS 3 Zrotation Yrotation Xrotation
						End Site
						{
							OFFSET -0.00000 -0.00000 0.89242
						}
					}
				}
			}
		}
	}
	JOINT LowerBack
	{
		OFFSET 0 0 0
		CHANNELS 3 Zrotation Yrotation Xrotation
		JOINT Spine
		{
			OFFSET 0.02173 2.16290 -0.15998
			CHANNELS 3 Zrotation Yrotation Xrotation
			JOINT Spine1
			{
				OFFSET 0.00940 2.17323 -0.00467
				CHANNELS 3 Zrotation Yrotation Xrotation
				JOINT Neck
				{
					OFFSET 0 0 0
					CHANNELS 3 Zrotation Yrotation Xrotation
					JOINT Neck1
					{
						OFFSET 0.01475 1.85823 0.31113
						CHANNELS 3 Zrotation Yrotation Xrotation
						JOINT Head
						{
							OFFSET 0.01902 1.88783 -0.37187
							CHANNELS 3 Zrotation Yrotation Xrotation
							End Site
							{
								OFFSET 0.00489 1.93211 -0.16169
							}
						}
					}
				}
				JOINT LeftShoulder
				{
					OFFSET 0 0 0
					CHANNELS 3 Zrotation Yrotation Xrotation
					JOINT LeftArm
					{
						OFFSET 3.34199 1.32384 -0.07862
						CHANNELS 3 Zrotation Yrotation Xrotation
						JOINT LeftForeArm
						{
							OFFSET 5.27950 -0.00000 0.00000
							CHANNELS 3 Zrotation Yrotation Xrotation
							JOINT LeftHand
							{
								OFFSET 3.53504 -0.00000 0.00000
								CHANNELS 3 Zrotation Yrotation Xrotation
								JOINT LeftFingerBase
								{
									OFFSET 0 0 0
									CHANNELS 3 Zrotation Yrotation Xrotation
									JOINT LeftHandIndex1
									{
										OFFSET 0.66795 -0.00000 0.00000
										CHANNELS 3 Zrotation Yrotation Xrotation
										End Site
										{
											OFFSET 0.53852 -0.00000 0.00000
										}
									}
								}
								JOINT LThumb
								{
									OFFSET 0 0 0
									CHANNELS 3 Zrotation Yrotation Xrotation
									End Site
									{
										OFFSET 0.54674 -0.00000 0.54674
									}
								}
							}
						}
					}
				}
				JOINT RightShoulder
				{
					OFFSET 0 0 0
					CHANNELS 3 Zrotation Yrotation Xrotation
					JOINT RightArm
					{
						OFFSET -3.16149 1.45719 -0.50507
						CHANNELS 3 Zrotation Yrotation Xrotation
						JOINT RightForeArm
						{
							OFFSET -5.25035 -0.00000 0.00000
							CHANNELS 3 Zrotation Yrotation Xrotation
							JOINT RightHand
							{
								OFFSET -3.58884 -0.00000 0.00000
								CHANNELS 3 Zrotation Yrotation Xrotation
								JOINT RightFingerBase
								{
									OFFSET 0 0 0
									CHANNELS 3 Zrotation Yrotation Xrotation
									JOINT RightHandIndex1
									{
										OFFSET -0.77924 -0.00000 0.00000
										CHANNELS 3 Zrotation Yrotation Xrotation
										End Site
										{
											OFFSET -0.62824 -0.00000 0.00000
										}
									}
								}
								JOINT RThumb
								{
									OFFSET 0 0 0
									CHANNELS 3 Zrotation Yrotation Xrotation
									End Site
									{
										OFFSET -0.63783 -0.00000 0.63783
									}
								}
							}
						}
					}
				}
			}
		}
	}
}
MOTION
Frames: 7
Frame Time: .0083333
-4.4379 17.8257 0.8786 -137.9870 85.4157 -133.4930 0.0000 0.0000 0.0000 -12.9065 -24.6934 -1.2787 0.6941 5.3257 14.8400 -0.5322 15.9449 -16.0679 2.7026 -10.1973 -29.6180 0.0000 0.0000 0.0000 20.5330 2.4445 1.9580 0.0000 0.0000 -0.0000 1.0525 -17.9707 -9.4172 -0.0153 0.7978 -2.1925 1.6191 1.8484 -0.0012 1.4457 2.6208 -3.7515 0.4929 1.3093 -3.8560 0.5409 -2.5362 -22.4801 1.4551 -3.9345 15.9720 -0.1305 -1.6414 8.6916 0.0000 -0.0000 0.0000 -85.8560 7.5921 41.7101 17.0288 -26.8957 -4.1004 -0.0000 0.0000 -33.9368 34.2468 53.0657 28.5540 -7.1250 0.0000 -0.0000 -68.9383 85.0288 -64.2122 0.0000 -0.0000 0.0000 52.1413 66.0746 10.1849 -98.9611 59.6944 -67.7525 0.0000 -0.0000 -24.0375 -28.5225 6.3555 -3.4428 7.1250 -0.0000 -0.0000 -1.3080 -22.7556 -0.7004
-4.4416 17.8255 0.8783 -138.3130 85.4757 -133.7970 0.0000 0.0000 0.0000 -12.9696 -24.7433 -1.2591 0.6902 5.3111 14.7980 -0.5371 16.0086 -16.1242 2.6684 -10.1378 -29.4240 0.0000 0.0000 0.0000 20.4648 2.4825 1.9181 0.0000 0.0000 -0.0000 1.0538 -17.9676 -9.3064 -0.0241 1.0025 -2.7558 1.5862 1.8700 -0.0166 1.4134 2.6467 -3.7477 0.4779 1.3226 -3.8432 0.5864 -2.5342 -22.4725 1.3627 -3.9252 15.8930 -0.1673 -1.6462 8.6599 -0.0000 -0.0000 0.0000 -85.8522 7.6223 41.6813 17.0267 -26.8930 -4.0994 -0.0000 0.0000 -33.8106 34.2116 53.1068 28.5352 -7.1250 0.0000 -0.0000 -69.3467 85.0146 -64.5952 -0.0000 -0.0000 0.0000 52.7608 65.4748 11.1149 -99.5073 59.6557 -68.2240 0.0000 -0.0000 -23.8366 -28.7652 6.5191 -3.5664 7.1250 -0.0000 -0.0000 -1.4766 -22.5534 -0.7976
-4.4445 17.8265 0.8792 -138.1040 85.5305 -133.5580 0.0000 0.0000 0.0000 -12.9873 -24.7658 -1.2623 0.6875 5.3010 14.7691 -0.5425 16.0698 -16.1673 2.6706 -10.1417 -29.4367 0.0000 0.0000 0.0000 20.4390 2.5496 1.8779 0.0000 -0.0000 0.0000 1.0536 -17.9563 -9.2189 -0.0251 1.0225 -2.8106 1.5705 1.8979 -0.0512 1.3922 2.6820 -3.7487 0.4650 1.3404 -3.8242 0.5190 -2.5637 -22.4788 1.4199 -3.9550 15.8525 -0.1408 -1.6585 8.6499 0.0000 -0.0000 0.0000 -85.8282 7.6377 41.6764 16.9899 -26.8445 -4.0828 -0.0000 0.0000 -33.7251 34.2876 53.3465 28.6791 -7.1250 0.0000 -0.0000 -72.2375 85.0481 -67.4439 0.0000 -0.0000 0.0000 53.3557 64.8453 12.0218 -100.1597 59.6064 -68.7869 0.0000 -0.0000 -23.7625 -28.8883 6.6679 -3.6658 7.1250 -0.0000 -0.0000 -1.5580 -22.3755 -0.8479
-4.4471 17.8284 0.8815 -137.5120 85.5400 -132.9370 0.0000 0.0000 0.0000 -12.9417 -24.8199 -1.2706 0.6859 5.2951 14.7522 -0.5419 16.1140 -16.2734 2.7279 -10.2410 -29.7608 0.0000 0.0000 0.0000 20.4732 2.6055 1.8413 0.0000 -0.0000 0.0000 1.0510 -17.9338 -9.1970 -0.0218 0.9538 -2.6216 1.5934 1.9233 -0.0760 1.3809 2.7157 -3.7556 0.4403 1.3565 -3.8158 0.5204 -2.5860 -22.4972 1.4611 -3.9941 15.8331 -0.1324 -1.6721 8.6475 0.0000 0.0000 0.0000 -85.8047 7.6198 41.6581 16.9384 -26.7765 -4.0595 -0.0000 0.0000 -33.7107 34.3622 53.5579 28.8127 -7.1250 0.0000 -0.0000 -74.8364 85.0700 -70.0083 0.0000 0.0000 0.0000 54.0200 64.1714 13.0116 -100.8935 59.5468 -69.4197 0.0000 -0.0000 -23.5464 -29.0706 6.9293 -3.8370 7.1250 -0.0000 -0.0000 -1.6749 -22.0648 -0.9235
-4.4490 17.8290 0.8827 -137.1380 85.5599 -132.5610 0.0000 0.0000 0.0000 -12.9563 -25.0000 -1.1775 0.6855 5.2934 14.7473 -0.5459 16.2523 -16.5045 2.7720 -10.3165 -30.0080 0.0000 0.0000 0.0000 20.4851 2.6447 1.8347 0.0000 0.0000 0.0000 1.0515 -17.9337 -9.1610 -0.0261 1.0439 -2.8697 1.6080 1.9487 -0.0715 1.3575 2.7489 -3.7532 0.4070 1.3720 -3.8139 0.6242 -2.5764 -22.5400 1.4296 -4.0077 15.8210 -0.1621 -1.6753 8.6478 0.0000 -0.0000 0.0000 -85.7825 7.6102 41.6030 16.9273 -26.7618 -4.0545 -0.0000 0.0000 -33.6708 34.2720 53.6705 28.7660 -7.1250 0.0000 -0.0000 -75.9291 85.0237 -71.0341 0.0000 -0.0000 0.0000 54.7521 63.4421 14.1011 -101.7265 59.4740 -70.1375 0.0000 -0.0000 -23.2477 -29.6999 7.1269 -4.0479 7.1250 -0.0000 -0.0000 -2.1198 -21.7908 -1.1822
-4.4498 17.8282 0.8831 -136.9310 85.6032 -132.3550 0.0000 0.0000 0.0000 -13.0031 -25.1535 -1.0891 0.6859 5.2951 14.7522 -0.5529 16.3845 -16.6733 2.7543 -10.2862 -29.9086 0.0000 0.0000 0.0000 20.4650 2.6883 1.8337 0.0000 0.0000 -0.0000 1.0573 -17.9738 -9.1243 -0.0279 1.0774 -2.9617 1.5952 1.9448 -0.0737 1.3527 2.7433 -3.7571 0.4093 1.3694 -3.8170 0.6409 -2.5328 -22.5532 1.4579 -3.9593 15.8159 -0.1486 -1.6482 8.6486 0.0000 0.0000 0.0000 -85.7914 7.6666 41.5099 16.9669 -26.8141 -4.0724 -0.0000 0.0000 -33.6718 34.3590 53.7703 28.8759 -7.1250 0.0000 -0.0000 -77.2694 85.0493 -72.3774 0.0000 0.0000 0.0000 55.6344 62.7017 15.4142 -102.6291 59.3887 -70.9147 0.0000 -0.0000 -23.0484 -30.3597 7.3803 -4.3030 7.1250 -0.0000 -0.0000 -2.5799 -21.4462 -1.4594
-4.4497 17.8286 0.8851 -136.4580 85.6301 -131.8410 0.0000 0.0000 0.0000 -12.9904 -25.2970 -1.0704 0.6873 5.3001 14.7665 -0.5687 16.5447 -16.7682 2.7309 -10.2461 -29.7774 0.0000 0.0000 0.0000 20.4797 2.7504 1.7954 0.0000 0.0000 -0.0000 1.0629 -18.0129 -9.0902 -0.0270 1.0615 -2.9180 1.5989 1.9208 -0.1115 1.3667 2.7133 -3.7977 0.4232 1.3551 -3.8384 0.5952 -2.4743 -22.5453 1.5201 -3.8788 15.8631 -0.1093 -1.6055 8.6656 -0.0000 -0.0000 0.0000 -85.8254 7.7128 41.3894 16.9789 -26.8300 -4.0778 -0.0000 0.0000 -33.6509 34.3686 53.8485 28.9088 -7.1250 0.0000 -0.0000 -78.1917 85.0438 -73.2801 -0.0000 -0.0000 0.0000 56.7427 61.8780 16.9844 -103.7021 59.2786 -71.8376 0.0000 -0.0000 -22.9094 -30.6880 7.7919 -4.6001 7.1250 -0.0000 -0.0000 -2.7848 -20.9433 -1.6073
